<?xml version="1.0" encoding="UTF-8"?>
<!DOCTYPE svg PUBLIC "-//W3C//DTD SVG 1.1//EN" "http://www.w3.org/Graphics/SVG/1.1/DTD/svg11.dtd">
<svg xmlns="http://www.w3.org/2000/svg" xmlns:xlink="http://www.w3.org/1999/xlink" version="1.1" width="170px" height="153px" viewBox="-0.5 -0.5 170 153"><defs/><g><path d="M 8.38 120.09 C 6.12 119.88 4.05 118.8 2.61 117.09 C 1.18 115.38 0.5 113.19 0.74 110.99 L 0.74 8.47 C 1.09 4.23 4.4 0.8 8.72 0.2 L 159.82 0.2 C 164.8 0 169.05 3.64 169.5 8.47 L 169.33 112.64 C 168.33 117.03 164.43 120.22 159.82 120.42 L 106.85 120.42 L 104.47 129.84 C 103.92 132.01 104.29 134.32 105.5 136.22 C 106.72 138.12 108.68 139.46 110.93 139.93 C 116.06 141.63 121.47 142.36 126.88 142.08 L 136.73 142.08 L 136.73 152 L 26.54 152 L 26.54 142.08 L 38.26 142.08 C 44.39 142.11 50.48 141.11 56.26 139.1 C 60.79 138.04 63.6 133.61 62.54 129.18 L 61.01 120.42 Z M 13.3 108.18 L 156.43 108.18 L 156.43 12.93 L 13.3 12.93 Z" fill="#00bef2" stroke="none" pointer-events="none"/></g></svg>